<?xml version="1.0" encoding="UTF-8"?>
<svg id="Layer_2" data-name="Layer 2" xmlns="http://www.w3.org/2000/svg" viewBox="0 0 179.51 49.96">
  <defs>
    <style>
      .cls-1 {
        fill: #7bb452;
      }

      .cls-2 {
        fill: #1e81bf;
      }

      .cls-3 {
        fill: #fff;
      }
    </style>
  </defs>
  <g id="Layer_1-2" data-name="Layer 1">
    <g>
      <g>
        <path class="cls-3" d="M49.88,29.11c3.68.2,6.17.3,7.47.3.31,0,.55-.09.74-.27s.27-.43.27-.74v-1.81h-4.63c-1.41,0-2.43-.32-3.07-.96-.64-.64-.96-1.66-.96-3.07v-.6c0-1.41.32-2.43.96-3.07.64-.64,1.66-.96,3.07-.96h7.07v2.82h-6.26c-.81,0-1.21.4-1.21,1.21v.4c0,.81.4,1.21,1.21,1.21h3.63c1.32,0,2.28.31,2.9.93.62.62.93,1.58.93,2.9v1.01c0,1.32-.31,2.28-.93,2.9-.62.62-1.58.93-2.9.93-.68,0-1.41-.01-2.18-.04l-1.85-.08c-1.37-.07-2.79-.16-4.25-.28v-2.72Z"/>
        <path class="cls-3" d="M76.29,32.03h-3.63v-5.74h-5.04v5.74h-3.63v-14.1h3.63v5.54h5.04v-5.54h3.63v14.1Z"/>
        <path class="cls-3" d="M81.42,32.03h-3.93l5.34-14.1h4.03l5.34,14.1h-3.93l-.91-2.52h-5.04l-.91,2.52ZM83.23,26.9h3.22l-1.61-4.73-1.61,4.73Z"/>
        <path class="cls-3" d="M105.49,24.18l-2.82,5.04h-2.82l-2.82-5.04v7.85h-3.63v-14.1h3.83l4.03,7.45,4.03-7.45h3.83v14.1h-3.63v-7.85Z"/>
        <path class="cls-3" d="M124.42,28.2c0,1.41-.32,2.43-.96,3.07-.64.64-1.66.96-3.07.96h-5.04c-1.41,0-2.43-.32-3.07-.96-.64-.64-.96-1.66-.96-3.07v-6.45c0-1.41.32-2.43.96-3.07s1.66-.96,3.07-.96h5.04c1.41,0,2.43.32,3.07.96.64.64.96,1.66.96,3.07v6.45ZM120.8,21.76c0-.81-.4-1.21-1.21-1.21h-3.42c-.81,0-1.21.4-1.21,1.21v6.45c0,.81.4,1.21,1.21,1.21h3.42c.81,0,1.21-.4,1.21-1.21v-6.45Z"/>
        <path class="cls-3" d="M130.26,29.21h7.35v2.82h-10.98v-14.1h3.63v11.28Z"/>
        <path class="cls-3" d="M145.87,32.03h-7.25v-2.82h1.81v-8.46h-1.81v-2.82h7.25v2.82h-1.81v8.46h1.81v2.82Z"/>
        <path class="cls-3" d="M159.97,24.18l-2.82,5.04h-2.82l-2.82-5.04v7.85h-3.63v-14.1h3.83l4.03,7.45,4.03-7.45h3.83v14.1h-3.63v-7.85Z"/>
        <path class="cls-3" d="M168.73,32.03h-3.93l5.34-14.1h4.03l5.34,14.1h-3.93l-.91-2.52h-5.04l-.91,2.52ZM170.55,26.9h3.22l-1.61-4.73-1.61,4.73Z"/>
      </g>
      <g>
        <g>
          <polygon class="cls-3" points="10.82 6.25 21.64 12.49 21.64 0 10.82 6.25"/>
          <polygon class="cls-1" points="32.45 6.25 21.64 12.49 21.64 0 32.45 6.25"/>
        </g>
        <g>
          <polygon class="cls-3" points="10.82 43.72 21.63 49.96 21.63 37.47 10.82 43.72"/>
          <polygon class="cls-1" points="32.45 43.72 21.63 49.96 21.63 37.47 32.45 43.72"/>
        </g>
        <polygon class="cls-2" points="10.82 18.74 0 24.98 0 12.49 10.82 18.74"/>
        <polygon class="cls-2" points="10.82 31.23 0 37.47 0 24.98 10.82 31.23"/>
        <g>
          <polygon class="cls-1" points="0 12.49 10.82 18.74 10.82 6.25 0 12.49"/>
          <polygon class="cls-2" points="21.63 12.49 10.82 18.74 10.82 6.25 21.63 12.49"/>
        </g>
        <g>
          <polygon class="cls-3" points="0 24.98 10.82 31.23 10.82 18.74 0 24.98"/>
          <polygon class="cls-1" points="21.63 24.98 10.82 31.23 10.82 18.74 21.63 24.98"/>
        </g>
        <polygon class="cls-1" points="0 37.47 10.82 43.72 10.82 31.23 0 37.47"/>
        <g>
          <polygon class="cls-1" points="32.45 18.74 43.27 24.98 43.27 12.49 32.45 18.74"/>
          <polygon class="cls-3" points="43.27 12.49 32.45 18.74 32.45 6.25 43.27 12.49"/>
        </g>
        <g>
          <polygon class="cls-2" points="21.63 24.98 32.45 31.23 32.45 18.74 21.63 24.98"/>
          <polygon class="cls-3" points="43.27 24.98 32.45 31.23 32.45 18.74 43.27 24.98"/>
        </g>
        <g>
          <polygon class="cls-2" points="32.45 31.23 43.27 37.47 43.27 24.98 32.45 31.23"/>
          <g>
            <polygon class="cls-2" points="21.63 37.47 32.45 43.72 32.45 31.23 21.63 37.47"/>
            <polygon class="cls-1" points="43.27 37.47 32.45 43.72 32.45 31.23 43.27 37.47"/>
          </g>
        </g>
      </g>
    </g>
  </g>
</svg>